<?xml version="1.0" encoding="utf-8"?>
<!-- Generator: Adobe Illustrator 28.2.0, SVG Export Plug-In . SVG Version: 6.00 Build 0)  -->
<svg version="1.1" id="Layer_1" xmlns="http://www.w3.org/2000/svg" xmlns:xlink="http://www.w3.org/1999/xlink" x="0px" y="0px"
	 viewBox="0 0 16 16" style="enable-background:new 0 0 16 16;" xml:space="preserve">
<style type="text/css">
	.st0{fill:#ECF0F1;stroke:#2C3E50;stroke-width:4;}
	.st1{fill:none;stroke:#2C3E50;stroke-width:3;}
	.st2{fill:#E67E22;stroke:#2C3E50;stroke-width:3;stroke-linejoin:round;}
	.st3{fill:#2C3E50;stroke:#2C3E50;stroke-width:3;stroke-linejoin:round;}
	.st4{fill:#2C3E50;}
	.st5{fill:#E67E22;}
</style>
<g>
	<path class="st0" d="M153.9,38h52c2.2,0,4,1.8,4,4v72c0,2.2-1.8,4-4,4h-52c-2.2,0-4-1.8-4-4V42C149.9,39.8,151.6,38,153.9,38z"/>
	<line class="st1" x1="159.9" y1="58" x2="199.9" y2="58"/>
	<line class="st1" x1="159.9" y1="68" x2="199.9" y2="68"/>
	<path class="st2" d="M164.9,98l15-25l15,25"/>
	<path class="st3" d="M174.9,98l10-15l10,15"/>
</g>
<line class="st1" x1="-128.3" y1="-14.6" x2="-88.3" y2="-14.6"/>
<line class="st1" x1="-128.3" y1="-4.6" x2="-88.3" y2="-4.6"/>
<path class="st0" d="M70.1-24.5h52c2.2,0,4,1.8,4,4v72c0,2.2-1.8,4-4,4h-52c-2.2,0-4-1.8-4-4v-72C66.1-22.7,67.9-24.5,70.1-24.5z"/>
<line class="st1" x1="76.1" y1="-4.5" x2="116.1" y2="-4.5"/>
<line class="st1" x1="76.1" y1="5.5" x2="116.1" y2="5.5"/>
<g>
	<path class="st4" d="M77.9,40.2l17.2-28.7c0.5-0.8,1.6-0.8,2.1,0l17.2,28.7"/>
	<path class="st5" d="M82.8,36.2l13.4-22.3l13.4,22.3"/>
	<path class="st4" d="M91.9,37.1l8.2-13.7l8.2,13.7"/>
</g>
<g>
	<path class="st4" d="M0.3,13.6L7.6,2.5c0.2-0.3,0.7-0.3,0.9,0l7.3,11.1"/>
	<path class="st5" d="M2.3,12.1L8,3.4l5.7,8.7"/>
	<path class="st4" d="M6.2,12.4l3.5-5.3l3.5,5.3"/>
</g>
</svg>
